<?xml version="1.0" encoding="UTF-8"?>
<svg fill="#FFFFFF" width="100pt" height="100pt" version="1.1" viewBox="0 0 100 100" xmlns="http://www.w3.org/2000/svg">
 <path d="m94.75 20.25c-0.070312-1.7812-1.2422-3.3281-2.9375-3.875l-38.688-12.438c-2.0312-0.65234-4.2188-0.65234-6.25 0l-38.75 12.5c-1.6953 0.54688-2.8672 2.0938-2.9375 3.875v46.438c-0.03125 4.25 2.2891 8.1719 6.0312 10.188l32.531 16.969c4.0078 2.1211 8.8047 2.1211 12.812 0l32.312-16.969c3.7422-2.0156 6.0625-5.9375 6.0312-10.188v-46.438zm-45.906-10.344c0.75-0.25 1.5625-0.25 2.3125 0l33.469 10.75-30.5 12.5c-2.6406 1.0938-5.6094 1.0938-8.25 0l-30.5-12.5zm-34.656 61.5c-1.6797-0.94531-2.707-2.7305-2.6875-4.6562v-40.938l32.031 13.125c1.0781 0.44141 2.1992 0.76562 3.3438 0.96875v48.625h-0.375z"/>
</svg>
