<?xml version="1.0" encoding="UTF-8"?>
<svg fill="#7F7E80" width="100pt" height="100pt" version="1.1" viewBox="0 0 100 100" xmlns="http://www.w3.org/2000/svg">
 <g>
  <path d="m41.227 58.508c0.29297 0.29297 0.69141 0.45703 1.1055 0.45703 0.41406 0 0.8125-0.16406 1.1055-0.45703l6.5625-6.5625 6.5625 6.5625c0.60938 0.60938 1.6016 0.60938 2.2109 0 0.60937-0.60937 0.60937-1.6016 0-2.2109l-6.5625-6.5625 6.5625-6.5625c0.60937-0.60938 0.60937-1.6016 0-2.2109-0.60938-0.60938-1.6016-0.60938-2.2109 0l-6.5625 6.5625-6.5625-6.5625c-0.60938-0.60938-1.6016-0.60938-2.2109 0-0.60937 0.60937-0.60937 1.6016 0 2.2109l6.5625 6.5625-6.5625 6.5625c-0.29297 0.29297-0.45703 0.69141-0.45703 1.1055 0 0.41406 0.16406 0.8125 0.45703 1.1055z"/>
  <path d="m99.305 28.391-18.75-12.5c-0.25781-0.17188-0.55859-0.26562-0.86719-0.26562h-78.125c-0.44531 0.003906-0.87109 0.19531-1.1641 0.53125-0.25391 0.28516-0.39453 0.65234-0.39844 1.0312v53.125c0 0.51953 0.26172 1.0078 0.69531 1.2969l18.75 12.5c0.26172 0.16016 0.55859 0.25391 0.86719 0.26562h78.125c0.41406 0 0.8125-0.16406 1.1055-0.45703s0.45703-0.69141 0.45703-1.1055v-53.125c0-0.51953-0.26172-1.0078-0.69531-1.2969zm-18.055-8.2812 12.023 8.0156h-12.023zm-62.5 59.781-12.023-8.0156h12.023zm0-11.141h-15.625v-48.641l15.625 10.414zm-12.023-50h71.398v9.375h-57.336zm71.398 12.5v37.5h-56.25v-37.5zm-56.25 50v-9.375h57.336l14.062 9.375zm75-1.3594-15.625-10.414v-38.227h15.625z"/>
 </g>
</svg>
