<svg width="286" height="286" viewBox="0 0 286 286" fill="none" xmlns="http://www.w3.org/2000/svg">
<path d="M260.46 183.24L265.566 185.799V99.4408L260.46 101.988V183.24ZM250.249 107.093L179.207 142.642L250.249 178.135V107.093ZM163.434 150.507V155.155L265.567 206.277V197.239L167.77 148.362L163.434 150.507ZM163.434 166.595V239.425L236.252 203.006L163.434 166.595ZM163.434 250.865V258.059L254.897 212.357L247.691 208.726L163.434 250.865ZM148.106 141.055V282.837L280.896 216.442V74.6603L148.106 141.055ZM275.791 210.153C275.779 212.085 274.696 213.84 272.975 214.7L269.043 216.644C268.898 216.744 268.741 216.8 268.585 216.9L214.602 243.892L160.62 270.883C159.905 271.24 159.123 271.43 158.318 271.442C157.369 271.442 156.43 271.173 155.615 270.682C154.14 269.721 153.235 268.09 153.213 266.336V147.346C153.224 145.413 154.308 143.659 156.028 142.799L253.314 94.179C253.37 94.1231 253.37 94.1231 253.414 94.1231L268.385 86.6156C269.971 85.8113 271.871 85.8894 273.39 86.8167C274.864 87.7775 275.769 89.4086 275.792 91.1625L275.791 210.153ZM31.1033 212.354L122.566 258.056V250.862L38.3077 208.723L31.1033 212.354ZM122.566 239.423V166.593L49.7477 203.001L122.566 239.423ZM35.7508 107.091V178.133L106.793 142.641L35.7508 107.091ZM118.233 148.361L20.4355 197.238V206.276L122.569 155.154V150.506L118.233 148.361ZM25.5406 101.986L20.435 99.4385V185.796L25.5406 183.238V101.986ZM31.1042 212.353L122.567 258.056V250.861L38.3085 208.722L31.1042 212.353ZM122.567 239.422V166.592L49.7485 203L122.567 239.422ZM35.7517 107.09V178.133L106.794 142.64L35.7517 107.09ZM20.4355 197.238V206.276L122.569 155.154V150.506L118.233 148.361L20.4355 197.238ZM25.5406 101.986L20.435 99.4385V185.796L25.5406 183.238V101.986ZM5.10738 74.6587V216.44L137.897 282.835V141.054L5.10738 74.6587ZM132.792 266.336C132.77 268.09 131.865 269.721 130.39 270.682C129.575 271.173 128.636 271.441 127.687 271.441C126.882 271.43 126.1 271.24 125.385 270.883L17.4201 216.9C17.2637 216.8 17.1073 216.744 16.9621 216.643L13.0296 214.699C11.3091 213.839 10.2254 212.085 10.2142 210.152V91.1622C10.2366 89.4082 11.1415 87.7771 12.6162 86.8164C14.1356 85.8892 16.0347 85.811 17.6212 86.6153L32.5916 94.1228C32.6363 94.1228 32.6363 94.1229 32.6921 94.1787L129.978 142.799C131.698 143.659 132.782 145.413 132.793 147.346L132.792 266.336ZM35.7523 107.091V178.133L106.795 142.641L35.7523 107.091ZM118.235 148.361L20.437 197.238V206.276L122.57 155.154V150.506L118.235 148.361ZM25.5421 101.986L20.4364 99.4388V185.796L25.5421 183.238V101.986ZM118.235 148.361L20.437 197.238V206.276L122.57 155.154V150.506L118.235 148.361ZM35.7523 107.091V178.133L106.795 142.641L35.7523 107.091ZM49.7505 203.001L122.569 239.42V166.59L49.7505 203.001ZM31.1048 212.352L122.568 258.055V250.86L38.3091 208.721L31.1048 212.352ZM49.7505 203.001L122.569 239.42V166.59L49.7505 203.001ZM143.001 18.4854L137.895 21.0326V111.737L143.001 114.296L148.107 111.737V21.0326L143.001 18.4854ZM158.318 26.1493V106.633L238.812 66.3924L158.318 26.1493ZM143.001 18.4854L137.895 21.0326V111.737L143.001 114.296L148.107 111.737V21.0326L143.001 18.4854ZM47.1908 66.3904L127.686 106.631V26.1473L47.1908 66.3904ZM158.316 26.1502V106.633L238.811 66.3932L158.316 26.1502ZM137.894 21.0334V111.738L143 114.297L148.105 111.738V21.0334L143 18.4862L137.894 21.0334ZM127.683 106.633V26.1499L47.1883 66.3901L127.683 106.633ZM158.316 106.633L238.811 66.3932L158.316 26.1528L158.316 106.633ZM137.894 21.0334V111.738L143 114.297L148.105 111.738V21.0334L143 18.4862L137.894 21.0334ZM127.683 106.633V26.1499L47.1883 66.3901L127.683 106.633ZM143 0.612976L11.44 66.393L143 132.173L274.56 66.393L143 0.612976ZM252.552 70.9404L145.302 124.565C143.861 125.314 142.141 125.314 140.699 124.565L33.4494 70.9404C31.7289 70.0801 30.6453 68.315 30.6453 66.3935C30.6453 64.4721 31.7289 62.7067 33.4494 61.8467L140.699 8.22172C142.141 7.45086 143.861 7.45086 145.302 8.22172L252.552 61.8467C254.273 62.7069 255.356 64.4721 255.356 66.3935C255.356 68.315 254.273 70.0804 252.552 70.9404ZM47.19 66.3935L127.685 106.634V26.1505L47.19 66.3935ZM143 18.4885L137.894 21.0357V111.741L143 114.299L148.106 111.741V21.0357L143 18.4885ZM158.316 26.1528L158.317 106.636L238.811 66.3955L158.316 26.1528ZM47.1914 66.3927L127.686 106.633V26.1496L47.1914 66.3927ZM143.001 18.4877L137.896 21.0349V111.74L143.001 114.298L148.107 111.74V21.0349L143.001 18.4877ZM158.318 26.1516V106.635L238.813 66.3947L158.318 26.1516Z" fill="#E7E9F3"/>
</svg>
