<svg width="446" height="285" viewBox="0 0 446 285" fill="none" xmlns="http://www.w3.org/2000/svg">
<path d="M216.889 52.8838C193.735 59.2119 172 68.625 172 68.625V126L273 171V114.75L250.556 47.25C244.489 47.25 237.545 48.1729 230.356 49.6407V69.7676C230.356 73.4853 227.331 76.5 223.622 76.5C219.905 76.5 216.889 73.4855 216.889 69.7676V52.8838ZM270.756 166.5L174.244 123.75V101.25L270.756 144V166.5ZM270.756 141.75L174.244 98.9998V76.4998L270.756 119.25V141.75ZM219.133 22.5088C219.133 20.0214 221.124 18 223.622 18C226.103 18 228.111 20.0039 228.111 22.5088V69.7408C228.111 72.2282 226.121 74.2496 223.622 74.2496C221.141 74.2496 219.133 72.2457 219.133 69.7408V22.5088ZM223.622 14.625C223.622 14.625 218.011 12.375 223.622 0C230.356 12.375 223.622 14.625 223.622 14.625Z" fill="#634DE9"/>
<path d="M99.5278 211.366C99.5278 209.261 99.979 207.055 100.881 204.749C101.834 202.443 103.087 200.363 104.641 198.508C106.195 196.603 107.975 195.024 109.98 193.771C112.035 192.517 114.191 191.891 116.447 191.891C117.6 191.891 118.753 192.091 119.906 192.492C121.059 192.893 122.086 193.47 122.989 194.222C123.941 194.974 124.693 195.876 125.245 196.929C125.846 197.981 126.147 199.16 126.147 200.463C125.245 200.463 124.417 200.363 123.665 200.162C122.964 199.962 122.262 199.736 121.56 199.485C120.858 199.185 120.156 198.934 119.455 198.733C118.803 198.533 118.076 198.433 117.274 198.433C115.219 198.433 113.539 198.959 112.236 200.012C110.983 201.014 109.98 202.293 109.228 203.847C108.476 205.401 107.95 207.08 107.649 208.885C107.398 210.639 107.273 212.294 107.273 213.848C107.273 214.098 107.273 214.575 107.273 215.276C107.323 215.978 107.348 216.73 107.348 217.532C107.398 218.284 107.423 219.011 107.423 219.713C107.473 220.415 107.524 220.891 107.574 221.142C108.125 222.345 108.651 223.272 109.153 223.924C109.704 224.576 110.281 225.077 110.882 225.428C111.484 225.729 112.136 225.929 112.837 226.029C113.539 226.079 114.366 226.104 115.319 226.104C116.622 226.104 117.75 225.904 118.703 225.503C119.705 225.102 120.633 224.626 121.485 224.074C122.337 223.523 123.139 222.921 123.891 222.27C124.643 221.568 125.42 220.941 126.222 220.39C127.074 219.788 127.977 219.312 128.929 218.961C129.932 218.56 131.06 218.359 132.313 218.359C132.313 220.816 131.862 222.996 130.959 224.901C130.107 226.806 128.879 228.436 127.275 229.789C125.721 231.143 123.866 232.195 121.71 232.947C119.605 233.649 117.299 234 114.792 234C112.436 234 110.306 233.198 108.401 231.594C106.546 229.99 104.942 228.035 103.588 225.729C102.285 223.372 101.282 220.891 100.581 218.284C99.8787 215.677 99.5278 213.371 99.5278 211.366ZM161.928 224.3C160.023 225.603 158.369 226.781 156.965 227.834C155.611 228.837 154.283 229.689 152.98 230.391C151.676 231.092 150.273 231.619 148.769 231.97C147.315 232.321 145.51 232.496 143.355 232.496C138.693 232.496 135.234 231.268 132.978 228.812C130.722 226.305 129.594 222.595 129.594 217.683C129.594 215.778 129.845 213.798 130.346 211.742C130.847 209.687 131.574 207.657 132.527 205.651C133.529 203.596 134.707 201.666 136.061 199.861C137.414 198.007 138.943 196.377 140.648 194.974C142.352 193.57 144.157 192.467 146.062 191.665C148.017 190.813 150.072 190.387 152.228 190.387C155.837 190.738 158.669 191.64 160.725 193.094C162.78 194.497 164.334 196.327 165.387 198.583C166.44 200.789 167.166 203.27 167.568 206.027C167.969 208.734 168.269 211.542 168.47 214.449C168.721 217.357 169.021 220.264 169.372 223.172C169.723 226.079 170.45 228.761 171.553 231.218C170.901 232.872 170.275 234.025 169.673 234.677C169.122 235.379 168.495 235.504 167.793 235.053C167.091 234.602 166.264 233.499 165.312 231.744C164.409 229.99 163.281 227.508 161.928 224.3ZM135.985 217.833C135.985 220.69 136.512 222.796 137.565 224.149C138.667 225.453 140.597 226.104 143.355 226.104C145.41 226.104 147.365 225.754 149.22 225.052C151.125 224.3 152.779 223.297 154.183 222.044C155.586 220.741 156.714 219.187 157.567 217.382C158.419 215.577 158.845 213.572 158.845 211.366C158.845 210.464 158.87 209.211 158.92 207.606C158.97 205.952 158.87 204.323 158.619 202.719C158.369 201.115 157.892 199.736 157.191 198.583C156.489 197.38 155.436 196.778 154.032 196.778C151.426 196.778 149.019 197.455 146.814 198.809C144.608 200.112 142.703 201.791 141.099 203.847C139.495 205.902 138.241 208.183 137.339 210.689C136.437 213.146 135.985 215.527 135.985 217.833ZM183.948 232.496C183.146 233.198 182.294 232.872 181.391 231.519C180.539 230.165 179.662 228.135 178.76 225.428C177.857 222.671 176.955 219.387 176.053 215.577C175.2 211.767 174.373 207.732 173.571 203.471C172.769 199.21 171.992 194.898 171.24 190.537C170.538 186.126 169.912 181.99 169.36 178.13C169.36 177.428 169.335 176.726 169.285 176.024C169.285 175.272 169.36 174.596 169.511 173.994C169.711 173.342 170.037 172.766 170.488 172.265C170.989 171.763 171.741 171.387 172.744 171.137C172.844 171.087 173.045 171.137 173.346 171.287C173.696 171.387 174.047 171.538 174.398 171.738C174.749 171.889 175.05 172.064 175.301 172.265C175.601 172.465 175.802 172.641 175.902 172.791C175.25 182.165 176.328 191.289 179.136 200.162C179.286 200.012 179.687 199.51 180.339 198.658C180.99 197.756 181.818 196.728 182.82 195.575C183.823 194.372 184.951 193.094 186.204 191.74C187.507 190.387 188.861 189.133 190.264 187.98C191.668 186.827 193.072 185.875 194.475 185.123C195.879 184.321 197.233 183.92 198.536 183.92C199.288 183.92 200.015 184.095 200.717 184.446C201.469 184.797 201.845 185.474 201.845 186.477C201.845 186.577 201.819 186.727 201.769 186.928C201.719 187.078 201.694 187.203 201.694 187.304C200.892 188.006 199.664 189.083 198.01 190.537C196.405 191.991 194.701 193.62 192.896 195.425C191.092 197.229 189.362 199.109 187.708 201.064C186.054 203.02 184.8 204.874 183.948 206.629C183.798 206.93 183.748 207.205 183.798 207.456C183.848 207.657 183.898 207.907 183.948 208.208C184.499 208.409 185.377 208.709 186.58 209.11C187.783 209.511 189.111 209.988 190.565 210.539C192.019 211.04 193.573 211.592 195.227 212.193C196.882 212.745 198.436 213.296 199.889 213.848C201.343 214.399 202.647 214.9 203.8 215.352C205.003 215.753 205.905 216.053 206.507 216.254C207.208 216.555 207.785 216.755 208.236 216.855C208.687 216.956 209.038 217.106 209.289 217.307C209.54 217.457 209.715 217.683 209.815 217.983C209.916 218.284 209.966 218.735 209.966 219.337C209.966 220.791 209.615 221.743 208.913 222.194C208.211 222.646 207.208 222.871 205.905 222.871C202.045 222.62 198.26 221.818 194.551 220.465C190.841 219.061 187.081 217.382 183.271 215.427C183.121 216.379 183.171 217.482 183.422 218.735C183.722 219.989 184.073 221.242 184.474 222.495C184.875 223.748 185.251 224.977 185.602 226.18C186.003 227.383 186.229 228.461 186.279 229.413C186.379 230.366 186.279 231.118 185.978 231.669C185.678 232.22 185.001 232.496 183.948 232.496ZM205.968 213.096C205.968 210.389 206.294 207.682 206.946 204.975C207.597 202.268 208.625 199.836 210.029 197.681C211.483 195.525 213.337 193.771 215.593 192.417C217.899 191.063 220.681 190.387 223.94 190.387C225.795 190.387 227.424 190.738 228.828 191.439C230.231 192.091 231.409 192.968 232.362 194.071C233.314 195.174 234.016 196.478 234.467 197.981C234.969 199.435 235.219 200.964 235.219 202.568C235.219 205.125 234.618 207.606 233.415 210.013C232.262 212.419 230.682 214.549 228.677 216.404C226.722 218.209 224.466 219.588 221.91 220.54C219.353 221.442 216.746 221.643 214.089 221.142C214.139 222.595 214.616 223.773 215.518 224.676C216.471 225.528 217.598 226.18 218.902 226.631C220.205 227.082 221.559 227.383 222.962 227.533C224.366 227.633 225.619 227.684 226.722 227.684C227.875 227.684 228.953 227.583 229.956 227.383C230.958 227.182 231.961 226.957 232.963 226.706C233.966 226.455 234.969 226.23 235.971 226.029C237.024 225.829 238.127 225.729 239.28 225.729C239.731 225.729 240.182 225.754 240.633 225.804C241.084 225.854 241.511 225.979 241.912 226.18C242.313 226.33 242.639 226.606 242.889 227.007C243.14 227.358 243.265 227.809 243.265 228.36C243.265 229.313 242.914 230.115 242.212 230.767C241.511 231.368 240.608 231.895 239.505 232.346C238.453 232.797 237.275 233.148 235.971 233.398C234.668 233.599 233.389 233.774 232.136 233.925C230.933 234.025 229.805 234.075 228.752 234.075C227.75 234.125 226.998 234.15 226.497 234.15C223.288 234.15 220.406 233.649 217.849 232.646C215.292 231.594 213.137 230.165 211.382 228.36C209.628 226.506 208.274 224.3 207.322 221.743C206.419 219.136 205.968 216.254 205.968 213.096ZM213.939 208.208C213.939 209.963 214.165 211.241 214.616 212.043C215.117 212.845 216.295 213.246 218.15 213.246C219.453 213.246 220.732 213.021 221.985 212.569C223.238 212.068 224.366 211.391 225.369 210.539C226.421 209.687 227.249 208.684 227.85 207.531C228.452 206.378 228.752 205.125 228.752 203.771C228.752 203.02 228.677 202.243 228.527 201.44C228.427 200.638 228.176 199.911 227.775 199.26C227.374 198.558 226.847 198.007 226.196 197.605C225.594 197.154 224.792 196.929 223.79 196.929C222.286 196.929 220.907 197.28 219.654 197.981C218.451 198.633 217.423 199.51 216.571 200.613C215.719 201.666 215.067 202.869 214.616 204.223C214.165 205.526 213.939 206.854 213.939 208.208ZM239.343 202.418C239.343 201.165 239.543 200.187 239.945 199.485C240.396 198.784 241.323 198.433 242.727 198.433C242.877 198.433 243.153 198.458 243.554 198.508C244.005 198.508 244.281 198.508 244.381 198.508C244.732 200.062 245.083 201.766 245.434 203.621C245.835 205.426 246.286 207.256 246.787 209.11C247.289 210.965 247.84 212.795 248.442 214.6C249.093 216.404 249.87 218.034 250.773 219.487C251.675 218.535 252.327 217.407 252.728 216.104C253.129 214.8 253.43 213.497 253.63 212.193C253.831 210.84 254.006 209.562 254.156 208.358C254.357 207.105 254.733 206.052 255.284 205.2C255.836 204.298 256.638 203.646 257.691 203.245C258.793 202.844 260.297 202.844 262.202 203.245C264.308 203.245 265.987 203.646 267.24 204.448C268.494 205.2 269.571 206.178 270.474 207.381C271.426 208.534 272.329 209.787 273.181 211.141C274.083 212.444 275.211 213.622 276.565 214.675C276.865 214.023 277.241 213.221 277.693 212.269C278.144 211.266 278.695 210.238 279.347 209.186C280.049 208.083 280.776 207.005 281.528 205.952C282.33 204.849 283.157 203.872 284.009 203.02C284.861 202.117 285.738 201.39 286.641 200.839C287.543 200.237 288.42 199.937 289.273 199.937C291.328 199.937 293.108 200.588 294.612 201.892C296.115 203.145 297.394 204.749 298.446 206.704C299.549 208.609 300.452 210.765 301.154 213.171C301.855 215.527 302.407 217.808 302.808 220.014C303.209 222.219 303.485 224.25 303.635 226.104C303.835 227.909 303.936 229.213 303.936 230.015C303.936 230.666 303.785 231.168 303.485 231.519C303.184 231.869 302.808 232.145 302.357 232.346C301.905 232.496 301.404 232.596 300.853 232.646C300.351 232.697 299.875 232.722 299.424 232.722C299.324 232.722 299.173 232.722 298.973 232.722C298.772 232.672 298.547 232.621 298.296 232.571C298.096 232.521 297.82 232.446 297.469 232.346L292.581 209.862C292.581 209.712 292.381 209.436 291.98 209.035C291.579 208.584 291.278 208.308 291.077 208.208C290.927 208.208 290.802 208.183 290.701 208.133C290.601 208.133 290.526 208.133 290.476 208.133C290.426 208.083 290.376 208.058 290.325 208.058C289.273 208.058 288.27 208.484 287.318 209.336C286.415 210.188 285.563 211.266 284.761 212.569C283.959 213.873 283.207 215.326 282.505 216.931C281.803 218.535 281.177 220.139 280.625 221.743C280.074 223.297 279.572 224.751 279.121 226.104C278.72 227.408 278.394 228.41 278.144 229.112C277.943 229.213 277.542 229.313 276.941 229.413C276.339 229.463 275.938 229.488 275.737 229.488C274.334 229.488 273.256 229.012 272.504 228.06C271.752 227.057 271.126 225.829 270.624 224.375C270.173 222.921 269.772 221.342 269.421 219.638C269.12 217.883 268.719 216.279 268.218 214.825C267.767 213.371 267.115 212.168 266.263 211.216C265.461 210.213 264.308 209.712 262.804 209.712C262.252 209.712 261.726 210.263 261.225 211.366C260.723 212.469 260.272 213.873 259.871 215.577C259.47 217.231 259.094 219.036 258.743 220.991C258.392 222.896 258.092 224.701 257.841 226.405C257.64 228.06 257.49 229.463 257.39 230.616C257.29 231.769 257.239 232.346 257.239 232.346C257.139 232.496 256.939 232.672 256.638 232.872C256.337 233.022 256.011 233.198 255.66 233.398C255.36 233.599 255.034 233.749 254.683 233.85C254.382 233.95 254.156 234 254.006 234C252.602 234 251.249 233.373 249.945 232.12C248.642 230.817 247.439 229.162 246.336 227.157C245.283 225.102 244.306 222.846 243.404 220.39C242.551 217.933 241.824 215.527 241.223 213.171C240.621 210.815 240.145 208.684 239.794 206.779C239.493 204.874 239.343 203.421 239.343 202.418ZM303.247 205.802C303.247 205.501 303.247 205.025 303.247 204.373C303.297 203.671 303.322 202.944 303.322 202.192C303.372 201.44 303.397 200.714 303.397 200.012C303.447 199.31 303.473 198.809 303.473 198.508C304.024 197.706 304.726 197.054 305.578 196.553C306.48 196.051 307.383 195.65 308.285 195.35C308.435 198.057 308.862 200.939 309.563 203.997C310.265 207.055 311.017 210.138 311.819 213.246C312.621 216.304 313.323 219.337 313.925 222.345C314.576 225.353 314.902 228.16 314.902 230.767C314.902 233.022 313.749 234.15 311.443 234.15C310.04 234.15 308.862 233.574 307.909 232.421C306.957 231.268 306.18 229.814 305.578 228.06C305.027 226.255 304.575 224.275 304.224 222.119C303.874 219.913 303.623 217.758 303.473 215.652C303.372 213.547 303.297 211.617 303.247 209.862C303.247 208.108 303.247 206.754 303.247 205.802ZM304.3 177.604C305.252 178.005 306.054 178.656 306.706 179.559C307.358 180.461 307.633 181.288 307.533 182.04C307.483 182.742 306.932 183.243 305.879 183.544C304.826 183.795 303.071 183.494 300.615 182.642C300.615 181.288 300.866 180.11 301.367 179.107C301.918 178.105 302.896 177.604 304.3 177.604ZM309.401 198.508C309.351 198.458 309.326 198.382 309.326 198.282C309.276 198.182 309.251 198.007 309.251 197.756C309.251 196.803 309.652 196.152 310.454 195.801C311.256 195.4 312.033 195.199 312.785 195.199C312.885 195.199 312.985 195.224 313.085 195.274C313.236 195.274 313.411 195.274 313.612 195.274C313.762 195.325 313.988 195.35 314.289 195.35L324.816 204.223C326.621 201.616 328.074 199.586 329.177 198.132C330.33 196.678 331.233 195.625 331.884 194.974C332.536 194.272 333.012 193.871 333.313 193.771C333.664 193.62 333.915 193.545 334.065 193.545C334.416 193.545 334.792 193.545 335.193 193.545C335.644 193.545 336.095 193.595 336.546 193.695C336.998 193.745 337.374 193.896 337.674 194.146C338.025 194.397 338.276 194.798 338.426 195.35C337.574 196.202 336.772 197.054 336.02 197.906C335.268 198.758 334.566 199.686 333.915 200.688C333.263 201.641 332.636 202.719 332.035 203.922C331.483 205.125 330.907 206.479 330.305 207.982C331.258 208.684 332.436 209.687 333.839 210.99C335.293 212.243 336.747 213.647 338.201 215.201C339.705 216.705 341.158 218.259 342.562 219.863C343.966 221.417 345.119 222.896 346.021 224.3C346.974 225.703 347.575 226.907 347.826 227.909C348.126 228.912 347.951 229.563 347.299 229.864C346.598 230.767 346.121 231.443 345.871 231.895C345.62 232.296 345.344 232.421 345.043 232.271C344.793 232.12 344.442 231.644 343.991 230.842C343.54 230.04 342.712 228.912 341.509 227.458C340.356 225.954 338.752 224.074 336.697 221.818C334.641 219.562 331.909 216.881 328.501 213.772L327.899 232.346C327.899 232.396 327.799 232.496 327.598 232.646C327.398 232.797 327.172 232.972 326.921 233.173C326.721 233.323 326.495 233.474 326.245 233.624C325.994 233.774 325.768 233.9 325.568 234H324.666H323.914C323.663 233.799 323.312 233.499 322.861 233.098C322.46 232.697 322.259 232.446 322.259 232.346V211.366L309.401 198.508Z" fill="#634DE9"/>
</svg>
